<?xml version="1.0" encoding="UTF-8" standalone="no"?>
<!-- Created with Inkscape (http://www.inkscape.org/) -->

<svg
   width="15.790669in"
   height="4.0643873in"
   viewBox="0 0 401.083 103.23544"
   version="1.1"
   id="svg1"
   inkscape:version="1.3 (0e150ed, 2023-07-21)"
   sodipodi:docname="denn-logo-full-purple-nofont.svg"
   xmlns:inkscape="http://www.inkscape.org/namespaces/inkscape"
   xmlns:sodipodi="http://sodipodi.sourceforge.net/DTD/sodipodi-0.dtd"
   xmlns:xlink="http://www.w3.org/1999/xlink"
   xmlns="http://www.w3.org/2000/svg"
   xmlns:svg="http://www.w3.org/2000/svg">
  <sodipodi:namedview
     id="namedview1"
     pagecolor="#ffffff"
     bordercolor="#000000"
     borderopacity="0.25"
     inkscape:showpageshadow="2"
     inkscape:pageopacity="0.0"
     inkscape:pagecheckerboard="0"
     inkscape:deskcolor="#d1d1d1"
     inkscape:document-units="mm"
     inkscape:zoom="0.54551732"
     inkscape:cx="825.82163"
     inkscape:cy="140.23386"
     inkscape:window-width="1912"
     inkscape:window-height="980"
     inkscape:window-x="101"
     inkscape:window-y="44"
     inkscape:window-maximized="0"
     inkscape:current-layer="g1" />
  <defs
     id="defs1">
    <linearGradient
       id="linearGradient2"
       inkscape:collect="always">
      <stop
         style="stop-color:#411271;stop-opacity:1;"
         offset="0"
         id="stop3" />
      <stop
         style="stop-color:#280b45;stop-opacity:1;"
         offset="1"
         id="stop2" />
    </linearGradient>
    <linearGradient
       inkscape:collect="always"
       xlink:href="#linearGradient2"
       id="linearGradient3"
       x1="18.080034"
       y1="174.75497"
       x2="161.12929"
       y2="174.75497"
       gradientUnits="userSpaceOnUse" />
  </defs>
  <g
     inkscape:label="Layer 1"
     inkscape:groupmode="layer"
     id="layer1"
     transform="translate(-15.19696,-88.287377)" />
  <g
     id="g1"
     transform="matrix(0.82904281,0,0,0.82904281,-14.989123,-93.261637)">
    <path
       id="path1"
       d="m 158.17313,237.0168 c -0.68191,0 -1.35789,-0.23126 -1.91528,-0.70563 L 95.478442,184.75245 c -0.664128,-0.56333 -1.049555,-1.38162 -1.049555,-2.25922 V 118.42285 H 64.780396 v 33.12922 c 0,1.16815 -0.681914,2.22363 -1.74926,2.70394 -1.055486,0.48031 -2.312583,0.29649 -3.184248,-0.48031 L 19.080216,117.68163 c -1.227448,-1.08513 -1.340112,-2.95891 -0.254977,-4.18636 1.096994,-1.22745 2.964849,-1.34011 4.186366,-0.25498 l 35.833164,31.73574 V 115.458 c 0,-1.6366 1.328253,-2.96485 2.964849,-2.96485 h 35.578185 c 1.630666,0 2.964847,1.32825 2.964847,2.96485 v 65.66547 l 59.72985,50.66927 c 1.25116,1.06734 1.39941,2.92927 0.34393,4.1745 -0.57519,0.68785 -1.41128,1.04956 -2.2533,1.04956 z"
       style="display:inline;fill:url(#linearGradient3);stroke-width:1.48242" />
    <path
       style="font-weight:300;font-size:157.756px;font-family:'Aristotelica Pro Display';-inkscape-font-specification:'Aristotelica Pro Display Light';letter-spacing:0px;fill:#280b45;stroke:#d0cfcc;stroke-width:0"
       d="m 252.61644,123.32651 c -2.05083,0 -3.31288,1.57756 -3.31288,3.47064 v 40.07002 c -6.78351,-9.78087 -18.29969,-16.09111 -31.07793,-16.09111 -20.82379,0 -37.70368,16.56438 -37.70368,37.54592 0,20.66604 16.87989,37.86144 37.70368,37.86144 20.82379,0 37.86144,-17.1954 37.86144,-37.86144 v -61.52483 c 0,-1.89308 -1.57756,-3.47064 -3.47063,-3.47064 z m -34.0753,96.23116 c -17.66867,0 -31.23569,-14.19804 -31.23569,-31.23569 0,-17.35315 13.56702,-31.07793 31.23569,-31.07793 15.7756,0 28.71159,11.51619 30.76242,26.66077 0,0.47326 0.15776,0.94653 0.15776,1.57756 0.15775,0.94653 0.15775,1.89307 0.15775,2.8396 0,17.03765 -13.72477,31.23569 -31.07793,31.23569 z m 86.29241,-68.78161 c -21.13931,0 -36.44164,16.87989 -36.44164,37.54592 0,20.98155 15.30233,37.86144 36.44164,37.86144 12.46272,0 20.82379,-4.57492 25.87198,-10.56965 1.57756,-1.57756 1.4198,-3.78614 0.47327,-4.89043 -1.41981,-1.57756 -3.62839,-0.94654 -5.04819,0.47326 -4.73268,5.0482 -11.35844,8.36107 -21.13931,8.36107 -16.24887,0 -28.71159,-12.62048 -29.81588,-29.0271 h 60.26279 c 2.05083,0 2.99736,-1.73532 2.99736,-4.10166 0,-18.93072 -13.72477,-35.65285 -33.60202,-35.65285 z m -29.34262,33.60202 c 1.73532,-15.46008 13.72477,-27.13403 29.65813,-27.13403 15.14457,0 26.81852,12.62048 27.29179,27.13403 z m 109.48254,-33.60202 c -19.87725,0 -34.70632,15.93335 -34.70632,35.81061 v 35.65285 c 0,2.05083 1.57756,3.47064 3.47063,3.47064 2.05083,0 3.31288,-1.41981 3.31288,-3.47064 v -35.81061 c 0,-16.24886 11.98946,-29.18486 28.08057,-29.18486 16.09111,0 26.81852,13.25151 26.81852,29.18486 v 35.81061 c 0,2.05083 1.73531,3.47064 3.47063,3.47064 2.05083,0 3.47063,-1.41981 3.47063,-3.47064 v -35.65285 c 0,-19.87726 -14.04028,-35.81061 -33.91754,-35.81061 z m 82.97949,0 c -19.87725,0 -34.70632,15.93335 -34.70632,35.81061 v 35.65285 c 0,2.05083 1.57756,3.47064 3.47064,3.47064 2.05082,0 3.31287,-1.41981 3.31287,-3.47064 v -35.81061 c 0,-16.24886 11.98946,-29.18486 28.08057,-29.18486 16.09111,0 26.81852,13.25151 26.81852,29.18486 v 35.81061 c 0,2.05083 1.73531,3.47064 3.47063,3.47064 2.05083,0 3.47063,-1.41981 3.47063,-3.47064 v -35.65285 c 0,-19.87726 -14.04028,-35.81061 -33.91754,-35.81061 z"
       id="text1"
       aria-label="denn" />
  </g>
</svg>
